<?xml version="1.0" encoding="iso-8859-1"?>
<!-- Generator: Adobe Illustrator 18.1.0, SVG Export Plug-In . SVG Version: 6.00 Build 0)  -->
<!DOCTYPE svg PUBLIC "-//W3C//DTD SVG 1.1//EN" "http://www.w3.org/Graphics/SVG/1.1/DTD/svg11.dtd">
<svg version="1.1" id="Camada_1" xmlns="http://www.w3.org/2000/svg" xmlns:xlink="http://www.w3.org/1999/xlink" x="0px" y="0px"
	 viewBox="0 0 200 200" style="enable-background:new 0 0 200 200;" xml:space="preserve">
<g>
	<g>
		<rect x="4.086" y="110.633" style="fill:none;" width="190.851" height="2.322"/>
	</g>
	<g>
		<rect x="4.086" y="106.777" style="fill:none;" width="190.851" height="2.323"/>
	</g>
	<g>
		<rect x="4.086" y="102.92" style="fill:none;" width="190.851" height="2.323"/>
	</g>
	<g>
		<rect x="4.086" y="99.061" style="fill:none;" width="190.851" height="2.326"/>
	</g>
	<g>
		<path style="fill:none;" d="M4.63,124.521h189.763c0.117-0.764,0.209-1.539,0.288-2.323H4.342
			C4.421,122.983,4.513,123.758,4.63,124.521z"/>
	</g>
	<g>
		<path style="fill:none;" d="M4.189,120.665h190.644c0.051-0.765,0.064-1.543,0.077-2.323H4.112
			C4.125,119.122,4.139,119.9,4.189,120.665z"/>
	</g>
	<g>
		<rect x="4.086" y="114.487" style="fill:none;" width="190.851" height="2.322"/>
	</g>
	<g>
		<rect x="4.086" y="83.64" style="fill:none;" width="190.851" height="2.323"/>
	</g>
	<g>
		<rect x="4.086" y="75.929" style="fill:none;" width="190.851" height="2.322"/>
	</g>
	<g>
		<rect x="4.086" y="95.207" style="fill:none;" width="190.851" height="2.322"/>
	</g>
	<g>
		<rect x="4.086" y="72.074" style="fill:none;" width="190.851" height="2.322"/>
	</g>
	<g>
		<rect x="4.086" y="79.783" style="fill:none;" width="190.851" height="2.323"/>
	</g>
	<g>
		<rect x="4.086" y="91.352" style="fill:none;" width="190.851" height="2.322"/>
	</g>
	<g>
		<path style="fill:none;" d="M5.404,128.378h188.214c0.189-0.762,0.365-1.533,0.516-2.323H4.889
			C5.039,126.845,5.214,127.616,5.404,128.378z"/>
	</g>
	<g>
		<rect x="4.086" y="68.218" style="fill:none;" width="190.851" height="2.323"/>
	</g>
	<g>
		<rect x="4.086" y="87.496" style="fill:none;" width="190.851" height="2.323"/>
	</g>
	<g>
		<path style="fill:none;" d="M152.982,178.499h18.311c-0.175-0.764-0.329-1.539-0.47-2.323h-19.692
			C151.724,176.966,152.344,177.738,152.982,178.499z"/>
	</g>
	<g>
		<path style="fill:none;" d="M147.518,170.786h22.585c-0.072-0.775-0.134-1.551-0.183-2.322h-23.744
			C146.603,169.238,147.052,170.012,147.518,170.786z"/>
	</g>
	<g>
		<path style="fill:none;" d="M145.35,166.932h24.487c-0.036-0.781-0.064-1.558-0.08-2.322h-25.58
			C144.549,165.376,144.94,166.15,145.35,166.932z"/>
	</g>
	<g>
		<path style="fill:none;" d="M161.33,186.208h12.671c-0.386-0.742-0.749-1.512-1.071-2.322h-14.614
			C159.284,184.706,160.281,185.492,161.33,186.208z"/>
	</g>
	<g>
		<path style="fill:none;" d="M156.603,182.353h15.765c-0.255-0.753-0.482-1.531-0.693-2.322h-17.355
			C155.051,180.834,155.815,181.606,156.603,182.353z"/>
	</g>
	<g>
		<path style="fill:none;" d="M169.147,190.064h7.493c-0.642-0.705-1.229-1.48-1.763-2.323h-11.045
			C165.507,188.676,167.28,189.455,169.147,190.064z"/>
	</g>
	<g>
		<path style="fill:none;" d="M143.45,163.077h26.286c-0.005-0.79-0.003-1.567,0.008-2.323h-27.327
			C142.741,161.513,143.086,162.287,143.45,163.077z"/>
	</g>
	<g>
		<path style="fill:none;" d="M139.017,151.508h31.224c0.091-0.978,0.176-1.762,0.241-2.322h-32.143
			C138.49,149.745,138.718,150.537,139.017,151.508z"/>
	</g>
	<g>
		<path style="fill:none;" d="M10.487,139.943h178.048c0.516-0.737,1.007-1.509,1.47-2.323H9.018
			C9.48,138.434,9.972,139.206,10.487,139.943z"/>
	</g>
	<g>
		<path style="fill:none;" d="M13.821,143.799h171.38c0.763-0.707,1.498-1.473,2.19-2.323H11.63
			C12.323,142.326,13.059,143.093,13.821,143.799z"/>
	</g>
	<g>
		<path style="fill:none;" d="M8.207,136.087h182.608c0.373-0.748,0.724-1.521,1.052-2.322H7.155
			C7.483,134.566,7.834,135.338,8.207,136.087z"/>
	</g>
	<g>
		<path style="fill:none;" d="M20.341,147.654h158.339c1.629-0.477,3.183-1.274,4.647-2.322H15.694
			C17.159,146.38,18.713,147.176,20.341,147.654z"/>
	</g>
	<g>
		<path style="fill:none;" d="M140.302,155.365h29.646c0.051-0.834,0.105-1.609,0.161-2.323h-30.605
			C139.739,153.757,140.004,154.531,140.302,155.365z"/>
	</g>
	<g>
		<path style="fill:none;" d="M141.777,159.221h28c0.023-0.807,0.054-1.578,0.089-2.323h-29.002
			C141.144,157.641,141.451,158.418,141.777,159.221z"/>
	</g>
	<g>
		<path style="fill:none;" d="M6.546,132.232h185.931c0.27-0.753,0.512-1.533,0.74-2.322H5.806
			C6.035,130.699,6.276,131.479,6.546,132.232z"/>
	</g>
	<g>
		<path style="fill:none;" d="M150.024,174.642h20.545c-0.117-0.771-0.22-1.545-0.309-2.323h-21.796
			C148.964,173.101,149.485,173.874,150.024,174.642z"/>
	</g>
	<g>
		<rect x="4.086" y="45.086" style="fill:none;" width="190.851" height="2.322"/>
	</g>
	<g>
		<path style="fill:none;" d="M9.407,16.564h180.208c-0.49-0.816-1.006-1.593-1.551-2.323H10.957
			C10.413,14.972,9.897,15.748,9.407,16.564z"/>
	</g>
	<g>
		<rect x="4.086" y="41.231" style="fill:none;" width="190.851" height="2.322"/>
	</g>
	<g>
		<rect x="4.086" y="48.94" style="fill:none;" width="190.851" height="2.323"/>
	</g>
	<g>
		<rect x="4.086" y="52.796" style="fill:none;" width="190.851" height="2.323"/>
	</g>
	<g>
		<path style="fill:none;" d="M174.936,6.625H24.086c-2.624,0-5.127,0.805-7.429,2.229h165.708
			C180.063,7.43,177.56,6.625,174.936,6.625z"/>
	</g>
	<g>
		<rect x="4.086" y="37.375" style="fill:none;" width="190.851" height="2.323"/>
	</g>
	<g>
		<path style="fill:none;" d="M184.5,10.386H14.522c-0.813,0.684-1.58,1.477-2.32,2.322h174.62
			C186.08,11.864,185.313,11.07,184.5,10.386z"/>
	</g>
	<g>
		<path style="fill:none;" d="M6.012,24.275h186.998c-0.245-0.792-0.508-1.567-0.794-2.322H6.806
			C6.519,22.708,6.257,23.483,6.012,24.275z"/>
	</g>
	<g>
		<path style="fill:none;" d="M4.408,31.986h190.208c-0.091-0.786-0.204-1.558-0.334-2.323H4.741
			C4.612,30.428,4.498,31.2,4.408,31.986z"/>
	</g>
	<g>
		<path style="fill:none;" d="M4.134,35.842h190.755c-0.024-0.781-0.059-1.558-0.12-2.323H4.254
			C4.192,34.284,4.158,35.061,4.134,35.842z"/>
	</g>
	<g>
		<path style="fill:none;" d="M7.415,20.42h184.192c-0.347-0.802-0.719-1.576-1.112-2.323H8.527
			C8.134,18.844,7.762,19.618,7.415,20.42z"/>
	</g>
	<g>
		<path style="fill:none;" d="M5.004,28.13h189.015c-0.162-0.79-0.354-1.56-0.557-2.322H5.561C5.358,26.57,5.166,27.339,5.004,28.13
			z"/>
	</g>
	<g>
		<rect x="4.086" y="60.507" style="fill:none;" width="190.851" height="2.322"/>
	</g>
	<g>
		<rect x="4.086" y="56.653" style="fill:none;" width="190.851" height="2.322"/>
	</g>
	<g>
		<rect x="4.086" y="64.362" style="fill:none;" width="190.851" height="2.323"/>
	</g>
	<g>
		<rect x="4.086" y="39.698" style="fill:#00CCFF;" width="190.851" height="1.533"/>
	</g>
	<g>
		<rect x="4.086" y="43.553" style="fill:#00CCFF;" width="190.851" height="1.533"/>
	</g>
	<g>
		<rect x="4.086" y="47.407" style="fill:#00CCFF;" width="190.851" height="1.533"/>
	</g>
	<g>
		<rect x="4.086" y="51.264" style="fill:#00CCFF;" width="190.851" height="1.533"/>
	</g>
	<g>
		<rect x="4.086" y="55.12" style="fill:#00CCFF;" width="190.851" height="1.533"/>
	</g>
	<g>
		<rect x="4.086" y="58.974" style="fill:#00CCFF;" width="190.851" height="1.533"/>
	</g>
	<g>
		<rect x="4.086" y="62.829" style="fill:#00CCFF;" width="190.851" height="1.533"/>
	</g>
	<g>
		<rect x="4.086" y="66.685" style="fill:#00CCFF;" width="190.851" height="1.533"/>
	</g>
	<g>
		<rect x="4.086" y="70.541" style="fill:#00CCFF;" width="190.851" height="1.533"/>
	</g>
	<g>
		<rect x="4.086" y="74.396" style="fill:#00CCFF;" width="190.851" height="1.533"/>
	</g>
	<g>
		<rect x="4.086" y="78.251" style="fill:#00CCFF;" width="190.851" height="1.533"/>
	</g>
	<g>
		<rect x="4.086" y="82.107" style="fill:#00CCFF;" width="190.851" height="1.533"/>
	</g>
	<g>
		<rect x="4.086" y="85.963" style="fill:#00CCFF;" width="190.851" height="1.533"/>
	</g>
	<g>
		<rect x="4.086" y="89.819" style="fill:#00CCFF;" width="190.851" height="1.533"/>
	</g>
	<g>
		<rect x="4.086" y="93.674" style="fill:#00CCFF;" width="190.851" height="1.533"/>
	</g>
	<g>
		<rect x="4.086" y="97.528" style="fill:#00CCFF;" width="190.851" height="1.533"/>
	</g>
	<g>
		<path style="fill:#00CCFF;" d="M182.365,8.854H16.657c-0.732,0.454-1.448,0.955-2.135,1.533H184.5
			C183.813,9.809,183.098,9.307,182.365,8.854z"/>
	</g>
	<g>
		<path style="fill:#00CCFF;" d="M12.202,12.708c-0.428,0.488-0.844,0.995-1.244,1.533h177.107c-0.4-0.537-0.816-1.045-1.243-1.533
			H12.202z"/>
	</g>
	<g>
		<path style="fill:#00CCFF;" d="M8.527,18.097h181.968c-0.279-0.53-0.578-1.033-0.88-1.533H9.407
			C9.105,17.064,8.807,17.567,8.527,18.097z"/>
	</g>
	<g>
		<path style="fill:#00CCFF;" d="M6.806,21.953h185.411c-0.197-0.518-0.394-1.035-0.609-1.533H7.415
			C7.199,20.919,7.002,21.435,6.806,21.953z"/>
	</g>
	<g>
		<path style="fill:#00CCFF;" d="M5.561,25.808h187.901c-0.139-0.521-0.295-1.027-0.451-1.533H6.012
			C5.855,24.781,5.699,25.287,5.561,25.808z"/>
	</g>
	<g>
		<path style="fill:#00CCFF;" d="M4.741,29.663h189.541c-0.086-0.512-0.159-1.031-0.263-1.533H5.004
			C4.901,28.631,4.827,29.151,4.741,29.663z"/>
	</g>
	<g>
		<path style="fill:#00CCFF;" d="M4.254,33.519h190.515c-0.042-0.515-0.096-1.025-0.153-1.533H4.408
			C4.349,32.493,4.295,33.004,4.254,33.519z"/>
	</g>
	<g>
		<path style="fill:#00CCFF;" d="M4.086,37.282v0.093h190.851v-0.093c0-0.487-0.033-0.96-0.048-1.44H4.134
			C4.119,36.323,4.086,36.796,4.086,37.282z"/>
	</g>
	<g>
		<path style="fill:#00CCFF;" d="M144.177,164.61h25.58c-0.012-0.516-0.018-1.027-0.021-1.533H143.45
			C143.685,163.583,143.926,164.093,144.177,164.61z"/>
	</g>
	<g>
		<path style="fill:#00CCFF;" d="M146.176,168.464h23.744c-0.032-0.514-0.06-1.024-0.083-1.533H145.35
			C145.617,167.442,145.892,167.951,146.176,168.464z"/>
	</g>
	<g>
		<path style="fill:#00CCFF;" d="M148.465,172.319h21.796c-0.059-0.51-0.111-1.021-0.158-1.533h-22.585
			C147.826,171.298,148.14,171.809,148.465,172.319z"/>
	</g>
	<g>
		<path style="fill:#00CCFF;" d="M151.131,176.175h19.692c-0.091-0.509-0.177-1.019-0.254-1.533h-20.545
			C150.385,175.157,150.751,175.669,151.131,176.175z"/>
	</g>
	<g>
		<path style="fill:#00CCFF;" d="M154.319,180.031h17.355c-0.136-0.506-0.264-1.015-0.382-1.533h-18.311
			C153.418,179.018,153.861,179.53,154.319,180.031z"/>
	</g>
	<g>
		<path style="fill:#00CCFF;" d="M158.315,183.886h14.614c-0.199-0.5-0.385-1.012-0.562-1.533h-15.765
			C157.16,182.88,157.73,183.391,158.315,183.886z"/>
	</g>
	<g>
		<path style="fill:#00CCFF;" d="M163.833,187.741h11.045c-0.309-0.491-0.602-1.003-0.877-1.533H161.33
			C162.137,186.759,162.977,187.262,163.833,187.741z"/>
	</g>
	<g>
		<path style="fill:#00CCFF;" d="M178.141,191.507c-0.536-0.433-1.027-0.925-1.5-1.443h-7.493
			C171.929,190.972,174.913,191.507,178.141,191.507z"/>
	</g>
	<g>
		<rect x="4.086" y="101.388" style="fill:#00CCFF;" width="190.851" height="1.533"/>
	</g>
	<g>
		<rect x="4.086" y="105.244" style="fill:#00CCFF;" width="190.851" height="1.533"/>
	</g>
	<g>
		<rect x="4.086" y="109.1" style="fill:#00CCFF;" width="190.851" height="1.533"/>
	</g>
	<g>
		<rect x="4.086" y="112.955" style="fill:#00CCFF;" width="190.851" height="1.533"/>
	</g>
	<g>
		<path style="fill:#00CCFF;" d="M4.086,117.558c0,0.265,0.022,0.521,0.026,0.784H194.91c0.005-0.264,0.026-0.519,0.026-0.784
			v-0.749H4.086V117.558z"/>
	</g>
	<g>
		<path style="fill:#00CCFF;" d="M4.342,122.198h190.339c0.051-0.51,0.118-1.015,0.152-1.533H4.189
			C4.224,121.183,4.29,121.688,4.342,122.198z"/>
	</g>
	<g>
		<path style="fill:#00CCFF;" d="M4.889,126.054h189.245c0.096-0.506,0.18-1.018,0.259-1.533H4.63
			C4.709,125.036,4.793,125.548,4.889,126.054z"/>
	</g>
	<g>
		<path style="fill:#00CCFF;" d="M5.806,129.91h187.411c0.146-0.503,0.273-1.016,0.401-1.533H5.404
			C5.532,128.894,5.66,129.408,5.806,129.91z"/>
	</g>
	<g>
		<path style="fill:#00CCFF;" d="M7.155,133.765h184.712c0.208-0.506,0.421-1.007,0.609-1.533H6.546
			C6.734,132.758,6.947,133.259,7.155,133.765z"/>
	</g>
	<g>
		<path style="fill:#00CCFF;" d="M9.018,137.62h180.987c0.282-0.497,0.55-1.009,0.811-1.533H8.207
			C8.468,136.611,8.736,137.123,9.018,137.62z"/>
	</g>
	<g>
		<path style="fill:#00CCFF;" d="M11.63,141.476h175.761c0.396-0.487,0.773-1.003,1.144-1.533H10.487
			C10.857,140.473,11.234,140.989,11.63,141.476z"/>
	</g>
	<g>
		<path style="fill:#00CCFF;" d="M15.694,145.332h167.634c0.645-0.461,1.268-0.973,1.873-1.533H13.821
			C14.427,144.359,15.05,144.871,15.694,145.332z"/>
	</g>
	<g>
		<path style="fill:#00CCFF;" d="M24.086,148.215h114c0,0,0.085,0.353,0.253,0.972h32.143c0.072-0.62,0.12-0.972,0.12-0.972h4.335
			c1.28,0,2.529-0.205,3.744-0.561H20.341C21.557,148.01,22.806,148.215,24.086,148.215z"/>
	</g>
	<g>
		<path style="fill:#00CCFF;" d="M139.504,153.041h30.605c0.044-0.548,0.088-1.066,0.131-1.533h-31.224
			C139.161,151.979,139.323,152.49,139.504,153.041z"/>
	</g>
	<g>
		<path style="fill:#00CCFF;" d="M140.864,156.898h29.002c0.025-0.529,0.053-1.041,0.082-1.533h-29.646
			C140.477,155.859,140.665,156.369,140.864,156.898z"/>
	</g>
	<g>
		<path style="fill:#00CCFF;" d="M142.417,160.754h27.327c0.008-0.52,0.019-1.033,0.033-1.533h-28
			C141.981,159.722,142.194,160.233,142.417,160.754z"/>
	</g>
</g>
</svg>
