<?xml version="1.0" encoding="utf-8"?>
<!-- Generator: Adobe Illustrator 18.1.0, SVG Export Plug-In . SVG Version: 6.00 Build 0)  -->
<!DOCTYPE svg PUBLIC "-//W3C//DTD SVG 1.1//EN" "http://www.w3.org/Graphics/SVG/1.1/DTD/svg11.dtd">
<svg version="1.1" id="Camada_1" xmlns="http://www.w3.org/2000/svg" xmlns:xlink="http://www.w3.org/1999/xlink" x="0px" y="0px"
	 viewBox="0 0 64 64" enable-background="new 0 0 64 64" xml:space="preserve">
<path fill="#B1A6E2" d="M43.8,22.2H19.2l0-4.3c0-0.1-0.1-0.2-0.2-0.2c-0.1,0-0.2,0-0.3,0L4.9,24.5c-0.1,0-0.2,0.1-0.2,0.2
	c0,0.1,0.1,0.2,0.2,0.2l13.8,6.8c0.1,0,0.1,0,0.2,0c0.1,0,0.1,0,0.2,0c0.1,0,0.2-0.1,0.2-0.2l0-4.3h24.6c4.7,0,8.6,3.2,8.6,7.3
	c0,4-3.8,7.2-8.6,7.2H18.9c-1.4,0-2.5,1.1-2.5,2.5c0,1.4,1.1,2.5,2.5,2.5h24.9c7.5,0,13.6-5.5,13.6-12.3
	C57.4,27.7,51.3,22.2,43.8,22.2z"/>
</svg>
