<?xml version="1.0" encoding="iso-8859-1"?>
<!-- Generator: Adobe Illustrator 18.1.0, SVG Export Plug-In . SVG Version: 6.00 Build 0)  -->
<!DOCTYPE svg PUBLIC "-//W3C//DTD SVG 1.1//EN" "http://www.w3.org/Graphics/SVG/1.1/DTD/svg11.dtd">
<svg version="1.1" id="Camada_1" xmlns="http://www.w3.org/2000/svg" xmlns:xlink="http://www.w3.org/1999/xlink" x="0px" y="0px"
	 viewBox="0 0 800 80" style="enable-background:new 0 0 800 80;" xml:space="preserve">
<g>
	<rect x="12.282" y="39.896" style="fill:none;" width="774.583" height="1.515"/>
	<rect x="12.282" y="42.411" style="fill:none;" width="774.583" height="1.515"/>
	<rect x="12.282" y="47.441" style="fill:none;" width="774.583" height="1.515"/>
	<rect x="12.282" y="44.926" style="fill:none;" width="774.583" height="1.515"/>
	<rect x="12.282" y="37.38" style="fill:none;" width="774.583" height="1.516"/>
	<rect x="12.282" y="49.957" style="fill:none;" width="774.583" height="1.515"/>
	<rect x="12.282" y="29.835" style="fill:none;" width="774.583" height="1.515"/>
	<rect x="12.282" y="27.32" style="fill:none;" width="774.583" height="1.515"/>
	<rect x="12.282" y="32.35" style="fill:none;" width="774.583" height="1.515"/>
	<rect x="12.282" y="34.865" style="fill:none;" width="774.583" height="1.515"/>
	<path style="fill:none;" d="M12.698,64.047h773.751c0.104-0.497,0.171-1.006,0.236-1.515H12.461
		C12.527,63.042,12.594,63.55,12.698,64.047z"/>
	<path style="fill:none;" d="M18.142,74.108h762.863c0.479-0.48,0.932-0.988,1.36-1.515H16.781
		C17.211,73.12,17.662,73.628,18.142,74.108z"/>
	<path style="fill:none;" d="M16.032,71.593h767.082c0.351-0.489,0.677-0.995,0.983-1.515H15.049
		C15.355,70.599,15.682,71.104,16.032,71.593z"/>
	<path style="fill:none;" d="M14.495,69.078h770.158c0.255-0.495,0.496-0.997,0.709-1.515H13.785
		C13.998,68.081,14.24,68.583,14.495,69.078z"/>
	<path style="fill:none;" d="M26.088,79H773.06c1.119-0.368,2.198-0.826,3.222-1.376H22.865C23.889,78.174,24.968,78.632,26.088,79z
		"/>
	<path style="fill:none;" d="M21.204,76.624h756.74c0.689-0.462,1.34-0.974,1.966-1.515H19.238
		C19.864,75.65,20.515,76.162,21.204,76.624z"/>
	<path style="fill:none;" d="M13.417,66.563h772.312c0.174-0.497,0.326-1.002,0.461-1.516H12.956
		C13.091,65.561,13.243,66.066,13.417,66.563z"/>
	<rect x="12.282" y="57.502" style="fill:none;" width="774.583" height="1.515"/>
	<rect x="12.282" y="54.987" style="fill:none;" width="774.583" height="1.515"/>
	<rect x="12.282" y="52.472" style="fill:none;" width="774.583" height="1.515"/>
	<path style="fill:none;" d="M12.36,61.532h774.427c0.039-0.502,0.077-1.004,0.077-1.515H12.283
		C12.283,60.528,12.321,61.03,12.36,61.532z"/>
	<rect x="12.282" y="24.805" style="fill:none;" width="774.583" height="1.515"/>
	<path style="fill:none;" d="M13.456,13.744h772.236c-0.184-0.515-0.382-1.021-0.606-1.515H14.061
		C13.837,12.723,13.639,13.23,13.456,13.744z"/>
	<path style="fill:none;" d="M12.365,18.774h774.417c-0.042-0.512-0.111-1.015-0.192-1.515H12.557
		C12.477,17.76,12.407,18.263,12.365,18.774z"/>
	<path style="fill:none;" d="M16.11,8.713h766.927c-0.382-0.525-0.787-1.03-1.217-1.515H17.327
		C16.897,7.684,16.492,8.189,16.11,8.713z"/>
	<path style="fill:none;" d="M12.725,16.259h773.698c-0.11-0.513-0.244-1.017-0.393-1.515H13.117
		C12.968,15.242,12.834,15.746,12.725,16.259z"/>
	<path style="fill:none;" d="M14.544,11.229h770.058c-0.271-0.52-0.567-1.023-0.882-1.516H15.426
		C15.112,10.206,14.816,10.709,14.544,11.229z"/>
	<path style="fill:none;" d="M766.865,0.411H32.282c-1.86,0-3.655,0.276-5.367,0.757h745.318
		C770.521,0.687,768.726,0.411,766.865,0.411z"/>
	<path style="fill:none;" d="M19.992,4.683c-0.606,0.475-1.191,0.975-1.739,1.515h762.642c-0.548-0.54-1.134-1.04-1.739-1.515
		H19.992z"/>
	<path style="fill:none;" d="M775.001,2.168H24.145c-0.966,0.434-1.893,0.939-2.771,1.515h756.398
		C776.894,3.107,775.967,2.602,775.001,2.168z"/>
	<path style="fill:none;" d="M12.282,20.411v0.879h774.583v-0.879c0-0.215-0.025-0.423-0.032-0.636H12.314
		C12.308,19.987,12.282,20.196,12.282,20.411z"/>
	<rect x="12.282" y="22.29" style="fill:none;" width="774.583" height="1.515"/>
	<rect x="12.282" y="38.896" style="fill:#00CCFF;" width="774.583" height="1"/>
	<rect x="12.282" y="41.411" style="fill:#00CCFF;" width="774.583" height="1"/>
	<rect x="12.282" y="43.926" style="fill:#00CCFF;" width="774.583" height="1"/>
	<rect x="12.282" y="46.441" style="fill:#00CCFF;" width="774.583" height="1"/>
	<rect x="12.282" y="48.957" style="fill:#00CCFF;" width="774.583" height="1"/>
	<rect x="12.282" y="51.472" style="fill:#00CCFF;" width="774.583" height="1"/>
	<rect x="12.282" y="53.987" style="fill:#00CCFF;" width="774.583" height="1"/>
	<rect x="12.282" y="56.502" style="fill:#00CCFF;" width="774.583" height="1"/>
	<path style="fill:#00CCFF;" d="M12.282,60c0,0.006,0.001,0.011,0.001,0.017h774.582c0-0.006,0.001-0.011,0.001-0.017v-0.983H12.282
		V60z"/>
	<path style="fill:#00CCFF;" d="M12.461,62.532h774.224c0.042-0.331,0.076-0.664,0.102-1H12.36
		C12.386,61.868,12.419,62.201,12.461,62.532z"/>
	<path style="fill:#00CCFF;" d="M12.956,65.047H786.19c0.088-0.333,0.189-0.661,0.259-1H12.698
		C12.768,64.387,12.869,64.714,12.956,65.047z"/>
	<path style="fill:#00CCFF;" d="M13.785,67.563h771.576c0.135-0.328,0.25-0.665,0.368-1H13.417
		C13.535,66.898,13.65,67.235,13.785,67.563z"/>
	<path style="fill:#00CCFF;" d="M15.049,70.078h769.048c0.193-0.329,0.38-0.66,0.555-1H14.495
		C14.669,69.418,14.856,69.75,15.049,70.078z"/>
	<path style="fill:#00CCFF;" d="M16.781,72.593h765.584c0.264-0.323,0.507-0.661,0.749-1H16.032
		C16.275,71.932,16.519,72.271,16.781,72.593z"/>
	<path style="fill:#00CCFF;" d="M19.238,75.108h760.671c0.374-0.324,0.747-0.65,1.096-1H18.142
		C18.491,74.459,18.864,74.785,19.238,75.108z"/>
	<path style="fill:#00CCFF;" d="M22.865,77.624h753.416c0.571-0.307,1.126-0.641,1.662-1H21.204
		C21.74,76.983,22.294,77.316,22.865,77.624z"/>
	<path style="fill:#00CCFF;" d="M772.232,1.168H26.915c-0.953,0.268-1.878,0.6-2.769,1h750.855
		C774.11,1.768,773.185,1.436,772.232,1.168z"/>
	<path style="fill:#00CCFF;" d="M777.772,3.683H21.374c-0.477,0.313-0.935,0.649-1.383,1h759.164
		C778.708,4.332,778.249,3.996,777.772,3.683z"/>
	<path style="fill:#00CCFF;" d="M17.327,7.198H781.82c-0.302-0.34-0.602-0.681-0.926-1H18.253
		C17.93,6.518,17.628,6.858,17.327,7.198z"/>
	<path style="fill:#00CCFF;" d="M15.426,9.713h768.294c-0.218-0.341-0.446-0.673-0.684-1H16.11
		C15.873,9.04,15.644,9.372,15.426,9.713z"/>
	<path style="fill:#00CCFF;" d="M14.061,12.229h771.025c-0.153-0.338-0.313-0.672-0.483-1H14.544
		C14.373,11.557,14.214,11.891,14.061,12.229z"/>
	<path style="fill:#00CCFF;" d="M13.117,14.744H786.03c-0.101-0.339-0.221-0.669-0.339-1H13.456
		C13.337,14.075,13.217,14.405,13.117,14.744z"/>
	<path style="fill:#00CCFF;" d="M12.557,17.259H786.59c-0.054-0.335-0.098-0.671-0.167-1H12.725
		C12.654,16.588,12.61,16.925,12.557,17.259z"/>
	<path style="fill:#00CCFF;" d="M12.314,19.774h774.519c-0.011-0.335-0.023-0.669-0.051-1H12.365
		C12.338,19.105,12.325,19.44,12.314,19.774z"/>
	<rect x="12.282" y="21.29" style="fill:#00CCFF;" width="774.583" height="1"/>
	<rect x="12.282" y="23.805" style="fill:#00CCFF;" width="774.583" height="1"/>
	<rect x="12.282" y="26.32" style="fill:#00CCFF;" width="774.583" height="1"/>
	<rect x="12.282" y="28.835" style="fill:#00CCFF;" width="774.583" height="1"/>
	<rect x="12.282" y="31.35" style="fill:#00CCFF;" width="774.583" height="1"/>
	<rect x="12.282" y="33.865" style="fill:#00CCFF;" width="774.583" height="1"/>
	<rect x="12.282" y="36.38" style="fill:#00CCFF;" width="774.583" height="1"/>
	<path style="fill:#00CCFF;" d="M32.282,80h734.583c2.161,0,4.24-0.358,6.194-1H26.088C28.041,79.642,30.121,80,32.282,80z"/>
</g>
</svg>
