<?xml version="1.0" encoding="utf-8"?>
<!-- Generator: Adobe Illustrator 15.0.0, SVG Export Plug-In . SVG Version: 6.00 Build 0)  -->
<!DOCTYPE svg PUBLIC "-//W3C//DTD SVG 1.1//EN" "http://www.w3.org/Graphics/SVG/1.1/DTD/svg11.dtd">
<svg version="1.1" id="Layer_1" xmlns="http://www.w3.org/2000/svg" xmlns:xlink="http://www.w3.org/1999/xlink" x="0px" y="0px"
	 width="64px" height="64px" viewBox="0 0 64 64" enable-background="new 0 0 64 64" xml:space="preserve">
<path d="M7.511,10.1c0,0,8.242-10.659,28.637-9.096C56.543,2.567,59.661,12.75,59.881,18.272c0.184,4.559-3.552,13.075-4.404,16.201
	c-0.854,3.127,0.498,4.266,0.426,5.826c-0.069,1.564-1.635,3.625-6.68,4.193c-5.046,0.568-5.828,5.045-5.756,5.473h-0.994
	c0,0-0.156-2.527-2.357-2.152c-2.023,0.344-2.166,1.513-2.166,3.572c0,2.061-3.592,2.6-3.648-0.426
	c-0.064-3.453-3.84-4.547-4.385-0.055c-0.454,3.734-4.605,1.451-4-1.082c0.689-2.883-3.412-4.053-4.122,0.711l-1.35-0.355
	c0,0,0.71-5.26-5.614-5.686c-6.324-0.426-6.111-3.057-5.329-7.746c0,0-0.711-2.414-1.99-4.121C6.232,30.919,0.547,17.49,7.511,10.1z
	"/>
<path d="M44.262,54.916c0,0,2.237-0.854,2.398-0.895c0.164-0.041,0.896-6.996,3.904-7.441c0,0-1.098,6.426-1.098,8.336
	c0,1.912-3.986,4.107-5.369,4.92c-1.382,0.814-5.49,3.58-11.59,3.297c-6.101-0.285-13.869-1.709-18.342-7.443
	c0,0-0.529-8.418,0-8.176c0.271,0.125,1.888,1.605,2.928,3.336c0.992,1.65,1.412,3.557,1.505,3.578
	c2.033,0.488,2.241,0.289,2.445,0.289c0.203,0-0.33-2.973,1.622-2.77s1.871,2.48,3.172,2.92c0.903,0.301,2.155,0.598,3.254,0
	c1.098-0.602,2.851-3.305,5.53-0.357c2.44,2.684,4.8-0.041,5.287-0.57c0.487-0.526,1.14-1.625,2.237-1.543
	C43.245,52.477,44.262,54.916,44.262,54.916z"/>
<path fill="#FFFFFF" d="M32.104,29.607c0,0,1.767,3.125,2.212,3.896c0.447,0.771,2.759,3.938,2.841,5.194
	c0.081,1.261-1.947,2.761-2.841,1.703c-0.895-1.053-1.705-2.188-1.866-2.678c0,0-0.17,2.07-0.836,2.557
	c-0.666,0.488-2.533,1.138-3.751-0.159c-1.218-1.3-0.73-2.64-0.324-3.287c0.406-0.649,2.678-3.694,2.881-4.144
	C30.623,32.245,32.104,29.607,32.104,29.607z"/>
<path fill="#FFFFFF" d="M12.765,27.579c0,0,1.745-1.949,3.937-1.868c2.191,0.082,4.627-0.083,6.25,0.933
	c1.624,1.016,2.963,1.99,2.678,3.208c-0.284,1.218-1.583,4.464-1.623,4.748c-0.041,0.285-2.435,1.584-6.088,0.896
	c-3.653-0.69-4.87-2.233-5.155-2.843C12.48,32.043,12.765,27.579,12.765,27.579z"/>
<path fill="#FFFFFF" d="M51.443,27.891c0,0-1.746-1.754-3.938-1.681c-2.19,0.073-4.628-0.075-6.25,0.839
	c-1.624,0.914-2.964,1.791-2.679,2.887c0.283,1.096,1.582,4.019,1.623,4.274s2.435,1.424,6.089,0.804
	c3.651-0.621,4.869-2.009,5.153-2.557C51.729,31.909,51.443,27.891,51.443,27.891z"/>
</svg>
