<?xml version="1.0" encoding="utf-8"?>
<!-- Generator: Adobe Illustrator 15.0.0, SVG Export Plug-In . SVG Version: 6.00 Build 0)  -->
<!DOCTYPE svg PUBLIC "-//W3C//DTD SVG 1.1//EN" "http://www.w3.org/Graphics/SVG/1.1/DTD/svg11.dtd">
<svg version="1.1" id="Layer_1" xmlns="http://www.w3.org/2000/svg" xmlns:xlink="http://www.w3.org/1999/xlink" x="0px" y="0px"
	 width="220px" height="220px" viewBox="0 0 220 220" enable-background="new 0 0 220 220" xml:space="preserve">
<g>
	<g>
		<path fill="#2BACE2" d="M110.014,218.119c-0.47,0-0.968,0-1.409-0.027l-0.139-0.138l0.166-13.238l0.139,0.027
			c1.161,0,2.349,0,3.537-0.027h0.138l0.332,13.35l-0.138,0.026C111.865,218.092,111.063,218.119,110.014,218.119z M122.533,217.539
			l-1.574-13.434h0.165c1.134-0.138,2.321-0.302,3.512-0.496h0.138l2.016,13.212h-0.11c-1.353,0.221-2.707,0.413-3.951,0.553
			L122.533,217.539z M98.682,217.512h-0.138c-1.438-0.167-2.764-0.305-4.008-0.499l0.028-0.138h-0.137l1.878-13.128l0.139,0.026
			c1.188,0.168,2.376,0.306,3.51,0.443h0.138L98.682,217.512z M84.78,215.161l-0.138-0.054c-1.217-0.278-2.489-0.607-3.897-0.996
			h-0.166l0.055-0.191l3.565-12.742l0.138,0.054c1.134,0.305,2.294,0.61,3.428,0.885l0.138,0.027L84.78,215.161z M136.408,214.858
			l-0.026-0.138l-3.236-12.825l0.11-0.027c1.023-0.275,2.156-0.58,3.428-0.939l0.138-0.026l3.76,12.823l-0.138,0.026
			c-1.298,0.386-2.626,0.748-3.897,1.077L136.408,214.858z M71.293,210.961l-0.11-0.026c-1.216-0.47-2.46-0.969-3.759-1.522
			l-0.11-0.054l5.278-12.3l0.111,0.057c1.022,0.44,2.101,0.883,3.289,1.325l0.111,0.057L71.293,210.961z M149.839,210.519
			l-4.975-12.464h0.194c1.215-0.499,2.268-0.939,3.234-1.382l0.11-0.057l5.417,12.245l-0.111,0.054
			c-1.354,0.581-2.569,1.107-3.729,1.577L149.839,210.519z M58.497,205.074l-0.111-0.057c-1.078-0.58-2.184-1.214-3.373-1.935
			l-0.193,0.389l-0.028-0.607l0.028-0.029l6.771-11.388l0.111,0.084c1.023,0.58,2.046,1.188,3.067,1.74l0.11,0.057L58.497,205.074z
			 M162.581,204.465l-6.523-11.662l0.141-0.055c0.966-0.553,1.989-1.134,3.039-1.797l0.138-0.084l0.057,0.11l6.909,11.307
			l-0.138,0.081c-1.354,0.828-2.461,1.465-3.484,2.046L162.581,204.465z M46.557,197.556l-0.111-0.081
			c-1.161-0.858-2.21-1.631-3.205-2.433l-0.055-0.167l0.027-0.027l8.347-10.612v0.332c0.857,0.691,1.769,1.353,2.764,2.1
			l0.111,0.084L46.557,197.556z M174.438,196.811l-8.069-10.834h0.221c0.886-0.637,1.795-1.355,2.765-2.13l0.11-0.081l8.401,10.392
			l-0.11,0.084c-0.996,0.801-2.046,1.63-3.206,2.485L174.438,196.811z M35.723,188.546l-0.111-0.081
			c-0.939-0.912-1.907-1.881-2.875-2.848l-0.082-0.083l9.562-9.369l0.082,0.111c0.857,0.882,1.687,1.684,2.516,2.485l0.111,0.084
			L35.723,188.546z M185.188,187.663l-0.081-0.083l-9.23-9.509l0.107-0.081c0.802-0.802,1.66-1.633,2.488-2.516l0.084-0.084
			l9.674,9.23l-0.084,0.084c-0.912,0.939-1.824,1.879-2.848,2.875L185.188,187.663z M26.131,178.209l-0.082-0.081
			c-0.884-1.106-1.714-2.157-2.46-3.153h-0.331l11-8.291v0.251c0.691,0.883,1.409,1.822,2.155,2.764l0.083,0.081l-0.083,0.111
			L26.131,178.209z M194.67,177.242l-10.475-8.318l0.054-0.084v-0.221l0.11,0.083c0.748-0.938,1.409-1.824,2.073-2.709l0.083-0.111
			l0.111,0.084l10.64,7.849l-0.081,0.11c-0.802,1.107-1.633,2.184-2.435,3.207L194.67,177.242z M17.951,166.713l-0.083-0.11
			c-0.69-1.134-1.354-2.24-1.962-3.317l-0.111,0.111v-0.416l0.083-0.054l11.526-6.497l0.054,0.111
			c0.553,0.969,1.134,1.962,1.798,3.068l0.082,0.11L17.951,166.713z M202.713,165.663l-11.471-6.882l0.054-0.138
			c0.61-0.97,1.19-2.02,1.771-3.069l0.055-0.11l11.746,6.439l-0.081,0.138c-0.691,1.244-1.328,2.378-2.02,3.482L202.713,165.663z
			 M11.346,154.246l-0.055-0.11c-0.525-1.131-1.023-2.348-1.604-3.729l-0.055-0.138l12.409-5.005l0.056,0.141
			c0.442,1.077,0.912,2.184,1.382,3.261l0.055,0.138L11.346,154.246z M209.703,153.334l-0.523-0.219l-0.029,0.055l-0.138-0.111
			l-12.078-5.471h0.057c0.496-1.134,0.912-2.184,1.298-3.18l0.057-0.138l0.138,0.055l12.327,4.81l-0.057,0.138
			c-0.413,1.079-0.883,2.24-1.493,3.622L209.703,153.334z M6.399,141.037l-0.028-0.14c-0.415-1.382-0.773-2.653-1.077-3.896
			l-0.028-0.14l12.935-3.345l0.027,0.141c0.332,1.215,0.636,2.349,0.967,3.425l0.027,0.141L6.399,141.037z M213.933,139.848
			l-12.853-3.677l0.029-0.138c0.332-1.133,0.635-2.294,0.913-3.397l0.026-0.138l12.99,3.177l-0.029,0.138
			c-0.303,1.244-0.635,2.516-1.05,3.897L213.933,139.848z M3.275,127.272l-0.027-0.138c-0.222-1.354-0.415-2.68-0.581-4.008v-0.138
			l13.266-1.604l0.028,0.138c0.138,1.106,0.277,2.268,0.47,3.512l0.027,0.138L3.275,127.272z M216.945,126.085l-0.165-0.027
			l-13.074-1.962v-0.141c0.168-1.104,0.332-2.265,0.47-3.481v-0.138h0.138l13.158,1.436v0.141c-0.168,1.382-0.332,2.734-0.526,4.006
			V126.085z M1.948,113.233l-0.027-0.139c-0.028-0.939-0.028-1.962-0.028-3.096v-1.077l13.378,0.248v0.829
			c0,0.885,0,1.797,0.027,2.737v0.138L1.948,113.233z M218.078,112.016l-13.349-0.22v-0.139c0-0.552,0-1.105,0-1.659
			c0-1.105,0-2.266-0.055-3.537v-0.138l13.35-0.498v0.137c0.054,1.411,0.081,2.764,0.081,4.035c0,0.636,0,1.244,0,1.88
			L218.078,112.016z M15.74,100.491L2.419,99.165l0.027-0.138c0.138-1.327,0.304-2.681,0.47-4.008v-0.166l0.166,0.028l13.101,1.823
			l-0.028,0.139c-0.138,1.188-0.303,2.349-0.414,3.51V100.491z M203.955,97.783v-0.138c-0.139-1.078-0.332-2.212-0.524-3.483
			l-0.026-0.138l13.182-2.21l0.027,0.109c0.194,1.244,0.389,2.571,0.58,4.008l-0.11,0.166L203.955,97.783z M17.758,88.304
			L4.74,85.235l0.027-0.138c0.276-1.189,0.608-2.46,0.996-3.924l0.055-0.11L18.697,84.6l-0.027,0.139
			c-0.359,1.271-0.636,2.403-0.885,3.427L17.758,88.304z M201.579,85.678l-0.029-0.138c-0.329-1.217-0.634-2.35-0.966-3.399
			l-0.055-0.139l12.796-3.924l0.027,0.138c0.442,1.382,0.802,2.653,1.106,3.87l0.055,0.138L201.579,85.678z M21.35,76.502
			L8.857,71.748l0.056-0.138c0.498-1.355,0.996-2.571,1.493-3.731l0.055-0.139l12.299,5.224l-0.028,0.11
			c-0.469,1.134-0.911,2.239-1.327,3.289L21.35,76.502z M197.655,73.958l-0.057-0.138c-0.442-1.05-0.913-2.155-1.409-3.233
			l-0.084-0.139l12.162-5.555l0.054,0.111c0.554,1.189,1.106,2.432,1.631,3.731l0.057,0.111L197.655,73.958z M26.463,65.253
			l-11.773-6.33l0.082-0.138c0.636-1.189,1.3-2.376,1.962-3.51l0.166-0.056h0.028l11.414,6.717l-0.083,0.111
			c-0.58,0.994-1.132,1.989-1.713,3.094L26.463,65.253z M192.208,62.848l-0.081-0.109c-0.58-0.996-1.189-2.017-1.824-3.04
			l-0.084-0.111l11.331-7.104l0.084,0.111c0.69,1.134,1.382,2.267,2.046,3.399h0.415L192.208,62.848z M33.014,54.778L22.18,46.956
			l0.055-0.109c0.857-1.189,1.659-2.239,2.432-3.235l0.083-0.111l10.503,8.238v0.248l-0.111-0.055
			c-0.746,0.939-1.41,1.852-2.046,2.735L33.014,54.778z M185.355,52.567l-0.084-0.111c-0.744-0.939-1.465-1.88-2.21-2.791
			l-0.084-0.084l10.28-8.54l0.111,0.11c0.912,1.132,1.743,2.184,2.516,3.178l0.083,0.111L185.355,52.567z M40.863,45.215
			l-9.755-9.148l0.11-0.111c0.995-1.05,1.934-1.989,2.819-2.873l0.11-0.111l9.397,9.507l-0.111,0.111
			c-0.829,0.829-1.63,1.657-2.46,2.542L40.863,45.215z M177.229,43.253l-0.11-0.111c-0.829-0.829-1.685-1.659-2.543-2.458
			l-0.11-0.111l9.12-9.757l0.11,0.083c0.969,0.911,1.963,1.852,2.904,2.819l0.081,0.082L177.229,43.253z M49.9,36.758l-8.484-10.336
			l0.111-0.084c1.023-0.855,2.1-1.686,3.178-2.487l0.11-0.083l8.07,10.641l-0.111,0.082c-0.884,0.664-1.825,1.409-2.791,2.184
			L49.9,36.758z M167.944,35.045l-0.111-0.083c-0.831-0.636-1.714-1.298-2.82-2.1l-0.11-0.083l7.768-10.889l0.111,0.083
			c1.131,0.829,2.183,1.602,3.203,2.376h0.222l-0.165,0.222L167.944,35.045z M59.933,29.544l-7.047-11.332l0.11-0.082
			c1.161-0.719,2.321-1.41,3.482-2.073l0.111-0.084l6.579,11.582v0.441l-0.194-0.277c-0.884,0.526-1.851,1.107-2.93,1.77
			L59.933,29.544z M157.58,28.052c-1.08-0.635-2.103-1.188-3.069-1.714l-0.138-0.055l6.303-11.801l0.107,0.055
			c1.134,0.608,2.295,1.244,3.512,1.963h0.194l-0.057,0.083l0.332,0.193h-0.442l-6.551,11.25l-0.11-0.083L157.58,28.052z
			 M70.823,23.713l-5.5-12.189l0.111-0.055c1.216-0.552,2.46-1.079,3.731-1.604l0.11-0.055l5.058,12.382l-0.111,0.055
			c-1.162,0.471-2.239,0.941-3.262,1.41L70.823,23.713z M146.662,22.608l-0.138-0.055c-1.079-0.443-2.184-0.885-3.263-1.3
			l-0.138-0.027l4.698-12.521l0.139,0.028c1.188,0.47,2.432,0.966,3.732,1.493l0.138,0.055L146.662,22.608z M82.404,19.346
			L78.535,6.55l0.109-0.056c1.299-0.387,2.626-0.746,3.897-1.078L82.68,5.39l3.399,12.934l-0.139,0.028
			c-1.105,0.275-2.266,0.607-3.426,0.939L82.404,19.346z M135,18.6l-0.141-0.056c-1.077-0.276-2.237-0.58-3.425-0.857l-0.141-0.027
			l0.029-0.139l2.985-12.878l0.138,0.027c1.325,0.303,2.653,0.635,3.897,0.967l0.138,0.056l-0.027,0.138L135,18.6z M94.427,16.527
			L92.27,3.344l0.138-0.027c1.299-0.221,2.626-0.416,3.981-0.582l0.138-0.027l1.686,13.294h-0.138
			c-1.244,0.166-2.376,0.332-3.51,0.498L94.427,16.527z M122.892,16.14l-0.138-0.027c-1.188-0.166-2.375-0.304-3.535-0.415h-0.141
			l1.301-13.322l0.138,0.028c1.354,0.111,2.707,0.277,4.008,0.47h0.138L122.892,16.14z M106.725,15.311l-0.442-13.349l0.166-0.027
			c1.271-0.028,2.433-0.055,3.565-0.055h0.608l-0.221,13.376h-0.387c-1.05,0-2.1,0.027-3.15,0.055H106.725z"/>
	</g>
	<g>
		<path fill="#414042" d="M110.001,209.334c-54.771,0-99.332-44.562-99.332-99.333c0-54.771,44.561-99.333,99.332-99.333
			s99.333,44.561,99.333,99.333C209.334,164.772,164.772,209.334,110.001,209.334z M110.001,18.31
			c-50.56,0-91.691,41.132-91.691,91.692c0,50.558,41.132,91.692,91.691,91.692c50.559,0,91.691-41.134,91.691-91.692
			C201.692,59.441,160.56,18.31,110.001,18.31z"/>
	</g>
</g>
</svg>
